<?xml version="1.0" standalone="no"?>
<!DOCTYPE svg PUBLIC "-//W3C//DTD SVG 20010904//EN"
 "http://www.w3.org/TR/2001/REC-SVG-20010904/DTD/svg10.dtd">
<svg version="1.0" xmlns="http://www.w3.org/2000/svg"
 width="500.000000pt" height="500.000000pt" viewBox="0 0 500.000000 500.000000"
 preserveAspectRatio="xMidYMid meet">

<g transform="translate(0.000000,500.000000) scale(0.100000,-0.100000)"
fill="#000000" stroke="none">
<path d="M700 2500 l0 -2300 1800 0 1800 0 0 1629 0 1630 -691 670 -690 671
-1110 0 -1109 0 0 -2300z m2100 1450 l0 -650 650 0 650 0 0 -1450 0 -1450
-1600 0 -1600 0 0 2100 0 2100 950 0 950 0 0 -650z m630 75 c96 -94 257 -250
357 -348 l181 -177 -484 0 -484 0 0 472 0 473 128 -125 c70 -69 206 -202 302
-295z"/>
<path d="M1937 2619 c-130 -31 -229 -126 -284 -275 -21 -58 -27 -92 -31 -205
-5 -151 9 -242 52 -335 74 -159 238 -233 426 -193 l51 11 -5 36 c-3 21 -8 59
-12 85 -5 38 -10 47 -23 43 -90 -25 -149 -12 -207 48 -55 58 -77 136 -78 276
0 240 98 374 252 341 26 -5 47 -9 48 -8 9 10 31 154 25 160 -24 24 -142 33
-214 16z"/>
<path d="M2431 2615 c-119 -33 -199 -129 -208 -248 -10 -127 35 -206 177 -310
110 -81 130 -104 137 -156 15 -111 -110 -161 -264 -107 l-40 14 -12 -80 c-8
-53 -9 -84 -3 -90 6 -6 36 -16 69 -24 174 -41 335 15 410 143 21 36 27 63 31
123 8 144 -41 226 -196 328 -119 78 -145 129 -102 199 33 56 103 65 215 28 19
-6 22 1 37 75 l15 82 -35 15 c-53 22 -167 26 -231 8z"/>
<path d="M2870 2142 c59 -263 110 -490 114 -505 l6 -27 110 0 c105 0 110 1
115 23 3 12 52 229 110 482 58 253 107 470 110 483 5 22 4 22 -103 22 l-108 0
-28 -177 c-30 -187 -68 -447 -82 -548 l-7 -60 -9 60 c-13 87 -107 665 -114
698 l-6 27 -107 0 -108 0 107 -478z"/>
</g>
</svg>
