<?xml version="1.0" standalone="no"?>
<!DOCTYPE svg PUBLIC "-//W3C//DTD SVG 20010904//EN"
 "http://www.w3.org/TR/2001/REC-SVG-20010904/DTD/svg10.dtd">
<svg version="1.0" xmlns="http://www.w3.org/2000/svg"
 width="512.000000pt" height="512.000000pt" viewBox="0 0 512.000000 512.000000"
 preserveAspectRatio="xMidYMid meet">

<g transform="translate(0.000000,512.000000) scale(0.100000,-0.100000)"
fill="#000000" stroke="none">
<path d="M1885 5114 c-421 -35 -713 -90 -1006 -190 -453 -154 -745 -380 -851
-659 l-23 -60 0 -1590 c0 -1524 1 -1592 19 -1645 86 -257 339 -472 746 -633
523 -208 1277 -284 1954 -197 207 26 283 44 311 70 43 41 40 110 -8 151 -26
23 -67 22 -272 -10 -431 -65 -986 -52 -1415 35 -266 53 -453 115 -655 214
-290 143 -449 307 -475 491 -5 35 -10 165 -10 288 l0 224 29 -24 c161 -133
245 -187 416 -266 360 -167 803 -262 1315 -282 228 -8 320 -7 555 10 165 12
202 22 229 61 36 51 1 139 -59 151 -14 2 -103 -2 -198 -10 -209 -18 -605 -12
-812 12 -721 83 -1281 334 -1431 641 -16 32 -30 83 -35 126 -9 83 -12 598 -3
598 3 0 29 -21 57 -46 281 -253 807 -436 1452 -506 159 -17 711 -17 870 0 516
56 951 181 1250 360 76 46 193 132 224 166 14 14 28 26 33 26 4 0 8 -67 8
-150 l0 -150 28 -31 c37 -42 102 -44 141 -4 l26 25 3 922 c3 1029 6 976 -68
1123 -183 366 -803 651 -1610 740 -138 16 -624 28 -735 19z m615 -215 c767
-57 1402 -325 1557 -658 32 -69 35 -80 31 -155 -4 -111 -44 -192 -142 -291
-240 -242 -703 -415 -1314 -492 -195 -25 -769 -25 -964 0 -410 51 -712 134
-983 267 -228 113 -379 242 -444 380 -22 46 -26 69 -26 145 0 82 3 97 32 155
109 222 443 424 892 541 414 107 879 144 1361 108z m-2102 -1402 c773 -517
2399 -570 3323 -107 109 55 228 133 312 204 l67 57 0 -268 c-1 -322 -8 -394
-46 -471 -36 -70 -173 -211 -264 -271 -146 -95 -374 -193 -600 -256 -555 -156
-1304 -173 -1900 -44 -303 66 -593 178 -780 300 -103 68 -224 194 -261 273
-42 89 -48 153 -49 469 l0 269 58 -50 c31 -27 94 -74 140 -105z"/>
<path d="M3928 2036 c-651 -115 -1028 -795 -779 -1402 122 -297 378 -518 701
-606 74 -20 107 -23 250 -22 136 1 179 4 242 22 380 104 646 370 750 750 18
63 21 106 22 242 1 181 -13 257 -75 406 -121 290 -411 531 -719 599 -102 22
-296 28 -392 11z m301 -207 c308 -50 565 -280 653 -586 19 -65 23 -102 23
-223 0 -124 -3 -156 -23 -220 -88 -278 -284 -474 -562 -562 -64 -20 -96 -23
-220 -23 -121 0 -158 4 -223 23 -260 75 -463 267 -552 519 -148 423 84 898
507 1039 43 14 99 29 126 34 69 11 198 11 271 -1z"/>
<path d="M3997 1533 c-4 -3 -7 -95 -7 -204 l0 -199 -202 -2 -203 -3 -3 -102
-3 -103 206 0 205 0 0 -205 0 -205 105 0 105 0 0 205 0 205 205 0 205 0 0 105
0 105 -205 0 -205 0 0 205 0 205 -98 0 c-54 0 -102 -3 -105 -7z"/>
</g>
</svg>
